<mxfile host="app.diagrams.net" modified="2025-01-29T15:55:11.481Z" agent="Mozilla/5.0 (Macintosh; Intel Mac OS X 10_15_7) AppleWebKit/537.36 (KHTML, like Gecko) Chrome/131.0.0.0 Safari/537.36" etag="cOFrwTQTZQ3y8E1WPTB4" version="24.3.1" type="onedrive">
  <diagram name="Page-1" id="9f46799a-70d6-7492-0946-bef42562c5a5">
    <mxGraphModel dx="2407" dy="1712" grid="1" gridSize="10" guides="1" tooltips="1" connect="1" arrows="1" fold="1" page="1" pageScale="1" pageWidth="1100" pageHeight="850" background="none" math="0" shadow="0">
      <root>
        <mxCell id="0" />
        <mxCell id="1" parent="0" />
        <mxCell id="u4SWkh4etZidu4dp4imT-1" value="" style="shape=mxgraph.signs.people.man_1;html=1;pointerEvents=1;fillColor=#000000;strokeColor=none;verticalLabelPosition=bottom;verticalAlign=top;align=center;" parent="1" vertex="1">
          <mxGeometry x="-940" y="150" width="37" height="98" as="geometry" />
        </mxCell>
        <mxCell id="u4SWkh4etZidu4dp4imT-3" value="&lt;font style=&quot;font-size: 19px;&quot;&gt;Пользователь&lt;/font&gt;" style="text;html=1;align=center;verticalAlign=middle;resizable=0;points=[];autosize=1;strokeColor=none;fillColor=none;" parent="1" vertex="1">
          <mxGeometry x="-990" y="260" width="150" height="40" as="geometry" />
        </mxCell>
        <mxCell id="u4SWkh4etZidu4dp4imT-5" value="" style="verticalLabelPosition=bottom;verticalAlign=top;html=1;strokeWidth=2;shape=mxgraph.arrows2.arrow;dy=0.6;dx=40;notch=0;" parent="1" vertex="1">
          <mxGeometry x="-890" y="190" width="70" height="20" as="geometry" />
        </mxCell>
        <mxCell id="u4SWkh4etZidu4dp4imT-6" value="&lt;font style=&quot;font-size: 16px;&quot;&gt;Приложение&lt;/font&gt;" style="rounded=1;whiteSpace=wrap;html=1;" parent="1" vertex="1">
          <mxGeometry x="-810" y="169" width="120" height="60" as="geometry" />
        </mxCell>
        <mxCell id="u4SWkh4etZidu4dp4imT-7" value="" style="verticalLabelPosition=bottom;verticalAlign=top;html=1;strokeWidth=2;shape=mxgraph.arrows2.arrow;dy=0.6;dx=40;notch=0;" parent="1" vertex="1">
          <mxGeometry x="-680" y="190" width="70" height="20" as="geometry" />
        </mxCell>
        <mxCell id="u4SWkh4etZidu4dp4imT-8" value="" style="rounded=1;whiteSpace=wrap;html=1;rotation=90;" parent="1" vertex="1">
          <mxGeometry x="-655" y="180" width="180" height="60" as="geometry" />
        </mxCell>
        <mxCell id="u4SWkh4etZidu4dp4imT-9" value="&lt;span style=&quot;color: rgb(0, 0, 0); font-family: Helvetica; font-size: 16px; font-style: normal; font-variant-ligatures: normal; font-variant-caps: normal; font-weight: 400; letter-spacing: normal; orphans: 2; text-align: center; text-indent: 0px; text-transform: none; widows: 2; word-spacing: 0px; -webkit-text-stroke-width: 0px; white-space: normal; background-color: rgb(251, 251, 251); text-decoration-thickness: initial; text-decoration-style: initial; text-decoration-color: initial; display: inline !important; float: none;&quot;&gt;API Gateway&lt;/span&gt;" style="text;whiteSpace=wrap;html=1;rotation=90;" parent="1" vertex="1">
          <mxGeometry x="-630" y="205" width="130" height="40" as="geometry" />
        </mxCell>
        <mxCell id="u4SWkh4etZidu4dp4imT-10" value="" style="swimlane;startSize=0;" parent="1" vertex="1">
          <mxGeometry x="-490" y="-100" width="460" height="740" as="geometry" />
        </mxCell>
        <mxCell id="u4SWkh4etZidu4dp4imT-13" value="&lt;b&gt;&lt;font style=&quot;font-size: 15px;&quot;&gt;Backend&lt;/font&gt;&lt;/b&gt;" style="text;html=1;align=center;verticalAlign=middle;resizable=0;points=[];autosize=1;strokeColor=none;fillColor=none;" parent="u4SWkh4etZidu4dp4imT-10" vertex="1">
          <mxGeometry x="10" y="10" width="90" height="30" as="geometry" />
        </mxCell>
        <mxCell id="u4SWkh4etZidu4dp4imT-47" style="edgeStyle=orthogonalEdgeStyle;rounded=0;orthogonalLoop=1;jettySize=auto;html=1;" parent="u4SWkh4etZidu4dp4imT-10" source="u4SWkh4etZidu4dp4imT-14" target="u4SWkh4etZidu4dp4imT-18" edge="1">
          <mxGeometry relative="1" as="geometry">
            <Array as="points">
              <mxPoint x="310" y="89" />
              <mxPoint x="310" y="90" />
            </Array>
          </mxGeometry>
        </mxCell>
        <mxCell id="u4SWkh4etZidu4dp4imT-14" value="Сервис товаров" style="rounded=1;whiteSpace=wrap;html=1;" parent="u4SWkh4etZidu4dp4imT-10" vertex="1">
          <mxGeometry x="140" y="59" width="120" height="60" as="geometry" />
        </mxCell>
        <mxCell id="u4SWkh4etZidu4dp4imT-46" value="" style="edgeStyle=orthogonalEdgeStyle;rounded=0;orthogonalLoop=1;jettySize=auto;html=1;" parent="u4SWkh4etZidu4dp4imT-10" source="u4SWkh4etZidu4dp4imT-15" target="u4SWkh4etZidu4dp4imT-22" edge="1">
          <mxGeometry relative="1" as="geometry" />
        </mxCell>
        <mxCell id="u4SWkh4etZidu4dp4imT-15" value="Сервис авторизации" style="rounded=1;whiteSpace=wrap;html=1;" parent="u4SWkh4etZidu4dp4imT-10" vertex="1">
          <mxGeometry x="140" y="160" width="120" height="60" as="geometry" />
        </mxCell>
        <mxCell id="u4SWkh4etZidu4dp4imT-16" value="Сервис&lt;div&gt;отзывов&lt;/div&gt;" style="rounded=1;whiteSpace=wrap;html=1;" parent="u4SWkh4etZidu4dp4imT-10" vertex="1">
          <mxGeometry x="140" y="270" width="120" height="60" as="geometry" />
        </mxCell>
        <mxCell id="u4SWkh4etZidu4dp4imT-38" style="edgeStyle=orthogonalEdgeStyle;rounded=0;orthogonalLoop=1;jettySize=auto;html=1;entryX=0;entryY=0.5;entryDx=0;entryDy=0;" parent="u4SWkh4etZidu4dp4imT-10" target="u4SWkh4etZidu4dp4imT-17" edge="1">
          <mxGeometry relative="1" as="geometry">
            <mxPoint x="160.0526315789475" y="564.9999999999995" as="sourcePoint" />
            <mxPoint x="70" y="329.99999999999955" as="targetPoint" />
            <Array as="points">
              <mxPoint x="120" y="565" />
              <mxPoint x="120" y="400" />
            </Array>
          </mxGeometry>
        </mxCell>
        <mxCell id="u4SWkh4etZidu4dp4imT-17" value="Сервис&amp;nbsp;&lt;div&gt;заказов&lt;/div&gt;" style="rounded=1;whiteSpace=wrap;html=1;" parent="u4SWkh4etZidu4dp4imT-10" vertex="1">
          <mxGeometry x="140" y="370" width="120" height="60" as="geometry" />
        </mxCell>
        <mxCell id="u4SWkh4etZidu4dp4imT-18" value="&lt;font style=&quot;font-size: 14px;&quot;&gt;База данных&lt;/font&gt;" style="strokeWidth=2;html=1;shape=mxgraph.flowchart.direct_data;whiteSpace=wrap;direction=north;" parent="u4SWkh4etZidu4dp4imT-10" vertex="1">
          <mxGeometry x="360" y="70" width="60" height="60" as="geometry" />
        </mxCell>
        <mxCell id="u4SWkh4etZidu4dp4imT-24" value="&lt;font style=&quot;font-size: 14px;&quot;&gt;База данных&lt;/font&gt;" style="strokeWidth=2;html=1;shape=mxgraph.flowchart.direct_data;whiteSpace=wrap;direction=north;" parent="u4SWkh4etZidu4dp4imT-10" vertex="1">
          <mxGeometry x="360" y="370" width="60" height="60" as="geometry" />
        </mxCell>
        <mxCell id="u4SWkh4etZidu4dp4imT-23" value="&lt;font style=&quot;font-size: 14px;&quot;&gt;База данных&lt;/font&gt;" style="strokeWidth=2;html=1;shape=mxgraph.flowchart.direct_data;whiteSpace=wrap;direction=north;" parent="u4SWkh4etZidu4dp4imT-10" vertex="1">
          <mxGeometry x="360" y="270" width="60" height="60" as="geometry" />
        </mxCell>
        <mxCell id="u4SWkh4etZidu4dp4imT-22" value="&lt;font style=&quot;font-size: 14px;&quot;&gt;База данных&lt;/font&gt;" style="strokeWidth=2;html=1;shape=mxgraph.flowchart.direct_data;whiteSpace=wrap;direction=north;" parent="u4SWkh4etZidu4dp4imT-10" vertex="1">
          <mxGeometry x="360" y="160" width="60" height="60" as="geometry" />
        </mxCell>
        <mxCell id="u4SWkh4etZidu4dp4imT-27" value="Сервис&amp;nbsp;&lt;div&gt;бонусов&lt;/div&gt;" style="rounded=1;whiteSpace=wrap;html=1;" parent="u4SWkh4etZidu4dp4imT-10" vertex="1">
          <mxGeometry x="140" y="470" width="120" height="60" as="geometry" />
        </mxCell>
        <mxCell id="u4SWkh4etZidu4dp4imT-50" style="edgeStyle=orthogonalEdgeStyle;rounded=0;orthogonalLoop=1;jettySize=auto;html=1;entryX=0;entryY=0.5;entryDx=0;entryDy=0;" parent="u4SWkh4etZidu4dp4imT-10" source="u4SWkh4etZidu4dp4imT-28" target="u4SWkh4etZidu4dp4imT-49" edge="1">
          <mxGeometry relative="1" as="geometry" />
        </mxCell>
        <mxCell id="u4SWkh4etZidu4dp4imT-28" value="Сервис&amp;nbsp;&lt;div&gt;оплаты&lt;/div&gt;" style="rounded=1;whiteSpace=wrap;html=1;" parent="u4SWkh4etZidu4dp4imT-10" vertex="1">
          <mxGeometry x="140" y="550" width="120" height="60" as="geometry" />
        </mxCell>
        <mxCell id="u4SWkh4etZidu4dp4imT-42" style="edgeStyle=orthogonalEdgeStyle;rounded=0;orthogonalLoop=1;jettySize=auto;html=1;" parent="u4SWkh4etZidu4dp4imT-10" source="u4SWkh4etZidu4dp4imT-29" target="u4SWkh4etZidu4dp4imT-41" edge="1">
          <mxGeometry relative="1" as="geometry" />
        </mxCell>
        <mxCell id="u4SWkh4etZidu4dp4imT-29" value="Сервис&amp;nbsp;&lt;div&gt;пуш-уведомлений&lt;/div&gt;" style="rounded=1;whiteSpace=wrap;html=1;" parent="u4SWkh4etZidu4dp4imT-10" vertex="1">
          <mxGeometry x="140" y="640" width="120" height="60" as="geometry" />
        </mxCell>
        <mxCell id="u4SWkh4etZidu4dp4imT-30" value="&lt;font style=&quot;font-size: 14px;&quot;&gt;База данных&lt;/font&gt;" style="strokeWidth=2;html=1;shape=mxgraph.flowchart.direct_data;whiteSpace=wrap;direction=north;" parent="u4SWkh4etZidu4dp4imT-10" vertex="1">
          <mxGeometry x="360" y="470" width="60" height="60" as="geometry" />
        </mxCell>
        <mxCell id="u4SWkh4etZidu4dp4imT-36" style="edgeStyle=orthogonalEdgeStyle;rounded=0;orthogonalLoop=1;jettySize=auto;html=1;entryX=-0.036;entryY=0.387;entryDx=0;entryDy=0;entryPerimeter=0;" parent="u4SWkh4etZidu4dp4imT-10" source="u4SWkh4etZidu4dp4imT-17" target="u4SWkh4etZidu4dp4imT-14" edge="1">
          <mxGeometry relative="1" as="geometry">
            <Array as="points">
              <mxPoint x="110" y="400" />
              <mxPoint x="110" y="82" />
            </Array>
          </mxGeometry>
        </mxCell>
        <mxCell id="u4SWkh4etZidu4dp4imT-41" value="&lt;font style=&quot;font-size: 15px;&quot;&gt;Firebase&lt;/font&gt;" style="strokeWidth=2;html=1;shape=mxgraph.flowchart.terminator;whiteSpace=wrap;" parent="u4SWkh4etZidu4dp4imT-10" vertex="1">
          <mxGeometry x="340" y="640" width="100" height="60" as="geometry" />
        </mxCell>
        <mxCell id="u4SWkh4etZidu4dp4imT-43" style="edgeStyle=orthogonalEdgeStyle;rounded=0;orthogonalLoop=1;jettySize=auto;html=1;entryX=0.5;entryY=0;entryDx=0;entryDy=0;entryPerimeter=0;" parent="u4SWkh4etZidu4dp4imT-10" source="u4SWkh4etZidu4dp4imT-27" target="u4SWkh4etZidu4dp4imT-30" edge="1">
          <mxGeometry relative="1" as="geometry" />
        </mxCell>
        <mxCell id="u4SWkh4etZidu4dp4imT-44" style="edgeStyle=orthogonalEdgeStyle;rounded=0;orthogonalLoop=1;jettySize=auto;html=1;entryX=0.5;entryY=0;entryDx=0;entryDy=0;entryPerimeter=0;" parent="u4SWkh4etZidu4dp4imT-10" source="u4SWkh4etZidu4dp4imT-17" target="u4SWkh4etZidu4dp4imT-24" edge="1">
          <mxGeometry relative="1" as="geometry" />
        </mxCell>
        <mxCell id="u4SWkh4etZidu4dp4imT-45" style="edgeStyle=orthogonalEdgeStyle;rounded=0;orthogonalLoop=1;jettySize=auto;html=1;entryX=0.5;entryY=0;entryDx=0;entryDy=0;entryPerimeter=0;" parent="u4SWkh4etZidu4dp4imT-10" source="u4SWkh4etZidu4dp4imT-16" target="u4SWkh4etZidu4dp4imT-23" edge="1">
          <mxGeometry relative="1" as="geometry" />
        </mxCell>
        <mxCell id="u4SWkh4etZidu4dp4imT-49" value="Сервис ЮKassa" style="whiteSpace=wrap;html=1;" parent="u4SWkh4etZidu4dp4imT-10" vertex="1">
          <mxGeometry x="330" y="550" width="120" height="60" as="geometry" />
        </mxCell>
        <mxCell id="u4SWkh4etZidu4dp4imT-25" value="" style="strokeWidth=2;html=1;shape=mxgraph.flowchart.annotation_1;align=left;pointerEvents=1;" parent="1" vertex="1">
          <mxGeometry x="-530" y="169" width="40" height="100" as="geometry" />
        </mxCell>
      </root>
    </mxGraphModel>
  </diagram>
</mxfile>
